<mxfile host="app.diagrams.net" agent="Mozilla/5.0 (Windows NT 10.0; Win64; x64) AppleWebKit/537.36 (KHTML, like Gecko) Chrome/133.0.0.0 Safari/537.36" version="26.0.16">
  <diagram id="C5RBs43oDa-KdzZeNtuy" name="Page-1">
    <mxGraphModel dx="1687" dy="976" grid="1" gridSize="10" guides="1" tooltips="1" connect="1" arrows="1" fold="1" page="1" pageScale="1" pageWidth="827" pageHeight="1169" math="0" shadow="0">
      <root>
        <mxCell id="WIyWlLk6GJQsqaUBKTNV-0" />
        <mxCell id="WIyWlLk6GJQsqaUBKTNV-1" parent="WIyWlLk6GJQsqaUBKTNV-0" />
        <mxCell id="WIyWlLk6GJQsqaUBKTNV-3" value="Evento" style="rounded=1;whiteSpace=wrap;html=1;fontSize=12;glass=0;strokeWidth=1;shadow=0;" parent="WIyWlLk6GJQsqaUBKTNV-1" vertex="1">
          <mxGeometry x="20" y="140" width="120" height="50" as="geometry" />
        </mxCell>
        <mxCell id="VnqO1U13nYdputCluO3b-52" style="edgeStyle=orthogonalEdgeStyle;rounded=0;orthogonalLoop=1;jettySize=auto;html=1;entryX=0.5;entryY=0;entryDx=0;entryDy=0;" edge="1" parent="WIyWlLk6GJQsqaUBKTNV-1" source="VnqO1U13nYdputCluO3b-0" target="WIyWlLk6GJQsqaUBKTNV-3">
          <mxGeometry relative="1" as="geometry" />
        </mxCell>
        <mxCell id="VnqO1U13nYdputCluO3b-0" value="Sistema de vendas" style="text;html=1;align=center;verticalAlign=middle;whiteSpace=wrap;rounded=1;fillColor=#D5E8D4;strokeColor=#82b366;" vertex="1" parent="WIyWlLk6GJQsqaUBKTNV-1">
          <mxGeometry x="20" y="50" width="120" height="30" as="geometry" />
        </mxCell>
        <mxCell id="VnqO1U13nYdputCluO3b-84" style="edgeStyle=none;curved=1;rounded=0;orthogonalLoop=1;jettySize=auto;html=1;fontSize=12;startSize=8;endSize=8;" edge="1" parent="WIyWlLk6GJQsqaUBKTNV-1" source="VnqO1U13nYdputCluO3b-2" target="VnqO1U13nYdputCluO3b-3">
          <mxGeometry relative="1" as="geometry" />
        </mxCell>
        <mxCell id="VnqO1U13nYdputCluO3b-2" value="Produto" style="rounded=1;whiteSpace=wrap;html=1;fontSize=12;glass=0;strokeWidth=1;shadow=0;" vertex="1" parent="WIyWlLk6GJQsqaUBKTNV-1">
          <mxGeometry x="10" y="400" width="120" height="50" as="geometry" />
        </mxCell>
        <mxCell id="VnqO1U13nYdputCluO3b-72" value="" style="edgeStyle=none;curved=1;rounded=0;orthogonalLoop=1;jettySize=auto;html=1;fontSize=12;startSize=8;endSize=8;entryX=0;entryY=0.5;entryDx=0;entryDy=0;" edge="1" parent="WIyWlLk6GJQsqaUBKTNV-1" source="VnqO1U13nYdputCluO3b-3" target="VnqO1U13nYdputCluO3b-73">
          <mxGeometry relative="1" as="geometry">
            <mxPoint x="210" y="509" as="targetPoint" />
          </mxGeometry>
        </mxCell>
        <mxCell id="VnqO1U13nYdputCluO3b-85" style="edgeStyle=none;curved=1;rounded=0;orthogonalLoop=1;jettySize=auto;html=1;fontSize=12;startSize=8;endSize=8;" edge="1" parent="WIyWlLk6GJQsqaUBKTNV-1" source="VnqO1U13nYdputCluO3b-3" target="VnqO1U13nYdputCluO3b-4">
          <mxGeometry relative="1" as="geometry" />
        </mxCell>
        <mxCell id="VnqO1U13nYdputCluO3b-3" value="Colaboradores" style="rounded=1;whiteSpace=wrap;html=1;fontSize=12;glass=0;strokeWidth=1;shadow=0;" vertex="1" parent="WIyWlLk6GJQsqaUBKTNV-1">
          <mxGeometry x="10" y="480" width="120" height="50" as="geometry" />
        </mxCell>
        <mxCell id="VnqO1U13nYdputCluO3b-78" style="edgeStyle=none;curved=1;rounded=0;orthogonalLoop=1;jettySize=auto;html=1;entryX=0;entryY=0.5;entryDx=0;entryDy=0;fontSize=12;startSize=8;endSize=8;" edge="1" parent="WIyWlLk6GJQsqaUBKTNV-1" source="VnqO1U13nYdputCluO3b-4" target="VnqO1U13nYdputCluO3b-74">
          <mxGeometry relative="1" as="geometry" />
        </mxCell>
        <mxCell id="VnqO1U13nYdputCluO3b-79" style="edgeStyle=none;curved=1;rounded=0;orthogonalLoop=1;jettySize=auto;html=1;exitX=1;exitY=0.75;exitDx=0;exitDy=0;entryX=0;entryY=0.5;entryDx=0;entryDy=0;fontSize=12;startSize=8;endSize=8;" edge="1" parent="WIyWlLk6GJQsqaUBKTNV-1" source="VnqO1U13nYdputCluO3b-4" target="VnqO1U13nYdputCluO3b-77">
          <mxGeometry relative="1" as="geometry" />
        </mxCell>
        <mxCell id="VnqO1U13nYdputCluO3b-86" style="edgeStyle=none;curved=1;rounded=0;orthogonalLoop=1;jettySize=auto;html=1;entryX=0.5;entryY=0;entryDx=0;entryDy=0;fontSize=12;startSize=8;endSize=8;" edge="1" parent="WIyWlLk6GJQsqaUBKTNV-1" source="VnqO1U13nYdputCluO3b-4" target="VnqO1U13nYdputCluO3b-80">
          <mxGeometry relative="1" as="geometry" />
        </mxCell>
        <mxCell id="VnqO1U13nYdputCluO3b-4" value="VENDAS" style="rounded=1;whiteSpace=wrap;html=1;fontSize=12;glass=0;strokeWidth=1;shadow=0;" vertex="1" parent="WIyWlLk6GJQsqaUBKTNV-1">
          <mxGeometry x="10" y="610" width="120" height="50" as="geometry" />
        </mxCell>
        <mxCell id="VnqO1U13nYdputCluO3b-7" value="Sessão para cadastrar e armazerar cada evento, gerando um ID para cada um dos eventos&amp;nbsp;" style="rounded=0;whiteSpace=wrap;html=1;" vertex="1" parent="WIyWlLk6GJQsqaUBKTNV-1">
          <mxGeometry x="290" y="90" width="300" height="40" as="geometry" />
        </mxCell>
        <mxCell id="VnqO1U13nYdputCluO3b-8" value="Campo de visualização de eventos&amp;nbsp;&lt;span data-darkreader-inline-color=&quot;&quot; data-darkreader-inline-bgcolor=&quot;&quot; style=&quot;background-color: transparent; color: light-dark(rgb(0, 0, 0), rgb(255, 255, 255)); --darkreader-inline-bgcolor: transparent; --darkreader-inline-color: var(--darkreader-text-000000, #181a1b);&quot;&gt;cadastrados&lt;/span&gt;" style="rounded=0;whiteSpace=wrap;html=1;" vertex="1" parent="WIyWlLk6GJQsqaUBKTNV-1">
          <mxGeometry x="290" y="30" width="300" height="40" as="geometry" />
        </mxCell>
        <mxCell id="VnqO1U13nYdputCluO3b-13" value="Botões para INCLUSÃO, ALTERAÇÃO E EDIÇÃO DE EVENTO" style="rounded=0;whiteSpace=wrap;html=1;" vertex="1" parent="WIyWlLk6GJQsqaUBKTNV-1">
          <mxGeometry x="290" y="150" width="300" height="40" as="geometry" />
        </mxCell>
        <mxCell id="VnqO1U13nYdputCluO3b-20" value="Lista de Eventos" style="swimlane;fontStyle=0;childLayout=stackLayout;horizontal=1;startSize=30;horizontalStack=0;resizeParent=1;resizeParentMax=0;resizeLast=0;collapsible=1;marginBottom=0;whiteSpace=wrap;html=1;" vertex="1" parent="WIyWlLk6GJQsqaUBKTNV-1">
          <mxGeometry x="650" y="30" width="140" height="120" as="geometry" />
        </mxCell>
        <mxCell id="VnqO1U13nYdputCluO3b-21" value="Venda de Pizza 1" style="text;strokeColor=none;fillColor=none;align=left;verticalAlign=middle;spacingLeft=4;spacingRight=4;overflow=hidden;points=[[0,0.5],[1,0.5]];portConstraint=eastwest;rotatable=0;whiteSpace=wrap;html=1;" vertex="1" parent="VnqO1U13nYdputCluO3b-20">
          <mxGeometry y="30" width="140" height="30" as="geometry" />
        </mxCell>
        <mxCell id="VnqO1U13nYdputCluO3b-22" value="Venda de Feijoada&amp;nbsp; 2" style="text;strokeColor=none;fillColor=none;align=left;verticalAlign=middle;spacingLeft=4;spacingRight=4;overflow=hidden;points=[[0,0.5],[1,0.5]];portConstraint=eastwest;rotatable=0;whiteSpace=wrap;html=1;" vertex="1" parent="VnqO1U13nYdputCluO3b-20">
          <mxGeometry y="60" width="140" height="30" as="geometry" />
        </mxCell>
        <mxCell id="VnqO1U13nYdputCluO3b-23" value="Venda de Pastel 3" style="text;strokeColor=none;fillColor=none;align=left;verticalAlign=middle;spacingLeft=4;spacingRight=4;overflow=hidden;points=[[0,0.5],[1,0.5]];portConstraint=eastwest;rotatable=0;whiteSpace=wrap;html=1;" vertex="1" parent="VnqO1U13nYdputCluO3b-20">
          <mxGeometry y="90" width="140" height="30" as="geometry" />
        </mxCell>
        <mxCell id="VnqO1U13nYdputCluO3b-55" style="edgeStyle=orthogonalEdgeStyle;rounded=0;orthogonalLoop=1;jettySize=auto;html=1;entryX=1;entryY=0.25;entryDx=0;entryDy=0;" edge="1" parent="WIyWlLk6GJQsqaUBKTNV-1" source="VnqO1U13nYdputCluO3b-27" target="VnqO1U13nYdputCluO3b-2">
          <mxGeometry relative="1" as="geometry" />
        </mxCell>
        <mxCell id="VnqO1U13nYdputCluO3b-59" style="edgeStyle=orthogonalEdgeStyle;rounded=0;orthogonalLoop=1;jettySize=auto;html=1;entryX=0;entryY=0.5;entryDx=0;entryDy=0;" edge="1" parent="WIyWlLk6GJQsqaUBKTNV-1" source="VnqO1U13nYdputCluO3b-27">
          <mxGeometry relative="1" as="geometry">
            <mxPoint x="570" y="380" as="targetPoint" />
          </mxGeometry>
        </mxCell>
        <mxCell id="VnqO1U13nYdputCluO3b-27" value="Cadastro de produtos, contendo INCLUSÃO, ALTERAÇÃO E EDIÇÃO DE PRODUTO" style="rounded=0;whiteSpace=wrap;html=1;" vertex="1" parent="WIyWlLk6GJQsqaUBKTNV-1">
          <mxGeometry x="230" y="360" width="300" height="40" as="geometry" />
        </mxCell>
        <mxCell id="VnqO1U13nYdputCluO3b-56" style="edgeStyle=orthogonalEdgeStyle;rounded=0;orthogonalLoop=1;jettySize=auto;html=1;entryX=1;entryY=0.5;entryDx=0;entryDy=0;" edge="1" parent="WIyWlLk6GJQsqaUBKTNV-1" source="VnqO1U13nYdputCluO3b-28" target="VnqO1U13nYdputCluO3b-2">
          <mxGeometry relative="1" as="geometry" />
        </mxCell>
        <mxCell id="VnqO1U13nYdputCluO3b-28" value="Campo de visualização de PRODUTOS&amp;nbsp;&lt;span data-darkreader-inline-color=&quot;&quot; data-darkreader-inline-bgcolor=&quot;&quot; style=&quot;background-color: transparent; color: light-dark(rgb(0, 0, 0), rgb(255, 255, 255)); --darkreader-inline-bgcolor: transparent; --darkreader-inline-color: var(--darkreader-text-000000, #181a1b);&quot;&gt;cadastrados e quantidades e infomações sobre eles&lt;/span&gt;" style="rounded=0;whiteSpace=wrap;html=1;" vertex="1" parent="WIyWlLk6GJQsqaUBKTNV-1">
          <mxGeometry x="230" y="420" width="300" height="40" as="geometry" />
        </mxCell>
        <mxCell id="VnqO1U13nYdputCluO3b-29" value="LISTA DE PRODUTOS" style="swimlane;fontStyle=0;childLayout=stackLayout;horizontal=1;startSize=30;horizontalStack=0;resizeParent=1;resizeParentMax=0;resizeLast=0;collapsible=1;marginBottom=0;whiteSpace=wrap;html=1;" vertex="1" parent="WIyWlLk6GJQsqaUBKTNV-1">
          <mxGeometry x="580" y="430" width="180" height="120" as="geometry" />
        </mxCell>
        <mxCell id="VnqO1U13nYdputCluO3b-30" value="PASTEL DE CARNE&amp;nbsp;" style="text;strokeColor=none;fillColor=none;align=left;verticalAlign=middle;spacingLeft=4;spacingRight=4;overflow=hidden;points=[[0,0.5],[1,0.5]];portConstraint=eastwest;rotatable=0;whiteSpace=wrap;html=1;" vertex="1" parent="VnqO1U13nYdputCluO3b-29">
          <mxGeometry y="30" width="180" height="30" as="geometry" />
        </mxCell>
        <mxCell id="VnqO1U13nYdputCluO3b-31" value="PASTEL DE PIZZA" style="text;strokeColor=none;fillColor=none;align=left;verticalAlign=middle;spacingLeft=4;spacingRight=4;overflow=hidden;points=[[0,0.5],[1,0.5]];portConstraint=eastwest;rotatable=0;whiteSpace=wrap;html=1;" vertex="1" parent="VnqO1U13nYdputCluO3b-29">
          <mxGeometry y="60" width="180" height="30" as="geometry" />
        </mxCell>
        <mxCell id="VnqO1U13nYdputCluO3b-32" value="PASTEL DE BANANA&amp;nbsp; C/ CANELA" style="text;strokeColor=none;fillColor=none;align=left;verticalAlign=middle;spacingLeft=4;spacingRight=4;overflow=hidden;points=[[0,0.5],[1,0.5]];portConstraint=eastwest;rotatable=0;whiteSpace=wrap;html=1;" vertex="1" parent="VnqO1U13nYdputCluO3b-29">
          <mxGeometry y="90" width="180" height="30" as="geometry" />
        </mxCell>
        <mxCell id="VnqO1U13nYdputCluO3b-38" style="edgeStyle=orthogonalEdgeStyle;rounded=0;orthogonalLoop=1;jettySize=auto;html=1;entryX=1;entryY=0.75;entryDx=0;entryDy=0;" edge="1" parent="WIyWlLk6GJQsqaUBKTNV-1" source="VnqO1U13nYdputCluO3b-34" target="WIyWlLk6GJQsqaUBKTNV-3">
          <mxGeometry relative="1" as="geometry" />
        </mxCell>
        <mxCell id="VnqO1U13nYdputCluO3b-34" value="QUANTIDADE DE BLOCOS EMITIDOS PARA VENDA&lt;div&gt;(Ex. quantos números foram emitidos, cada bloco tem uma numeração) que seja possivel cadastrar uma RANGE de blocos) e também (CADA BLOCO TEM 10 NÚMEROS) que seja possível dizer para o programa quantos blocos foram emitidos e quantos números tem cada um dos blocos, que ele use o branco de dados para criar uma listagem virtual dos blocos e números que foram emitidos.&amp;nbsp;&lt;/div&gt;&lt;div&gt;&lt;br&gt;&lt;/div&gt;" style="rounded=0;whiteSpace=wrap;html=1;" vertex="1" parent="WIyWlLk6GJQsqaUBKTNV-1">
          <mxGeometry x="170" y="210" width="570" height="110" as="geometry" />
        </mxCell>
        <mxCell id="VnqO1U13nYdputCluO3b-39" style="edgeStyle=orthogonalEdgeStyle;rounded=0;orthogonalLoop=1;jettySize=auto;html=1;entryX=1.029;entryY=0.528;entryDx=0;entryDy=0;entryPerimeter=0;" edge="1" parent="WIyWlLk6GJQsqaUBKTNV-1" source="VnqO1U13nYdputCluO3b-13" target="WIyWlLk6GJQsqaUBKTNV-3">
          <mxGeometry relative="1" as="geometry" />
        </mxCell>
        <mxCell id="VnqO1U13nYdputCluO3b-47" style="edgeStyle=orthogonalEdgeStyle;rounded=0;orthogonalLoop=1;jettySize=auto;html=1;entryX=1.003;entryY=0.092;entryDx=0;entryDy=0;entryPerimeter=0;" edge="1" parent="WIyWlLk6GJQsqaUBKTNV-1" source="VnqO1U13nYdputCluO3b-8" target="WIyWlLk6GJQsqaUBKTNV-3">
          <mxGeometry relative="1" as="geometry" />
        </mxCell>
        <mxCell id="VnqO1U13nYdputCluO3b-48" style="edgeStyle=orthogonalEdgeStyle;rounded=0;orthogonalLoop=1;jettySize=auto;html=1;entryX=0.803;entryY=-0.003;entryDx=0;entryDy=0;entryPerimeter=0;" edge="1" parent="WIyWlLk6GJQsqaUBKTNV-1" source="VnqO1U13nYdputCluO3b-7" target="WIyWlLk6GJQsqaUBKTNV-3">
          <mxGeometry relative="1" as="geometry">
            <Array as="points">
              <mxPoint x="220" y="110" />
              <mxPoint x="220" y="126" />
              <mxPoint x="116" y="126" />
            </Array>
          </mxGeometry>
        </mxCell>
        <mxCell id="VnqO1U13nYdputCluO3b-49" style="edgeStyle=orthogonalEdgeStyle;rounded=0;orthogonalLoop=1;jettySize=auto;html=1;entryX=-0.01;entryY=0.145;entryDx=0;entryDy=0;entryPerimeter=0;" edge="1" parent="WIyWlLk6GJQsqaUBKTNV-1" source="VnqO1U13nYdputCluO3b-8" target="VnqO1U13nYdputCluO3b-20">
          <mxGeometry relative="1" as="geometry" />
        </mxCell>
        <mxCell id="VnqO1U13nYdputCluO3b-50" style="edgeStyle=orthogonalEdgeStyle;rounded=0;orthogonalLoop=1;jettySize=auto;html=1;entryX=-0.014;entryY=0.392;entryDx=0;entryDy=0;entryPerimeter=0;" edge="1" parent="WIyWlLk6GJQsqaUBKTNV-1" source="VnqO1U13nYdputCluO3b-7" target="VnqO1U13nYdputCluO3b-22">
          <mxGeometry relative="1" as="geometry" />
        </mxCell>
        <mxCell id="VnqO1U13nYdputCluO3b-51" style="edgeStyle=orthogonalEdgeStyle;rounded=0;orthogonalLoop=1;jettySize=auto;html=1;entryX=0.535;entryY=-0.011;entryDx=0;entryDy=0;entryPerimeter=0;" edge="1" parent="WIyWlLk6GJQsqaUBKTNV-1" source="WIyWlLk6GJQsqaUBKTNV-3" target="VnqO1U13nYdputCluO3b-2">
          <mxGeometry relative="1" as="geometry" />
        </mxCell>
        <mxCell id="VnqO1U13nYdputCluO3b-57" style="edgeStyle=orthogonalEdgeStyle;rounded=0;orthogonalLoop=1;jettySize=auto;html=1;entryX=0.008;entryY=0.143;entryDx=0;entryDy=0;entryPerimeter=0;" edge="1" parent="WIyWlLk6GJQsqaUBKTNV-1" source="VnqO1U13nYdputCluO3b-28" target="VnqO1U13nYdputCluO3b-29">
          <mxGeometry relative="1" as="geometry" />
        </mxCell>
        <mxCell id="VnqO1U13nYdputCluO3b-58" value="Item, código, valor unitário, quantidade em estoque" style="rounded=0;whiteSpace=wrap;html=1;" vertex="1" parent="WIyWlLk6GJQsqaUBKTNV-1">
          <mxGeometry x="570" y="350" width="200" height="60" as="geometry" />
        </mxCell>
        <mxCell id="VnqO1U13nYdputCluO3b-73" value="pode deixar como está, só precisamos incluir um ID para cada colaborador (para vincular ele aos blocos que ele retirou)" style="rounded=0;whiteSpace=wrap;html=1;" vertex="1" parent="WIyWlLk6GJQsqaUBKTNV-1">
          <mxGeometry x="230" y="485" width="300" height="65" as="geometry" />
        </mxCell>
        <mxCell id="VnqO1U13nYdputCluO3b-74" value="VINCULAÇÃO DE BLOCOS AOS VENDEDORES&lt;div&gt;(cada vendedor retira 2 blocos.. precisamos vincular quantos blocos o vendedor retirou pela numeração dos blocos)&amp;nbsp;&lt;/div&gt;" style="rounded=0;whiteSpace=wrap;html=1;" vertex="1" parent="WIyWlLk6GJQsqaUBKTNV-1">
          <mxGeometry x="220" y="570" width="300" height="65" as="geometry" />
        </mxCell>
        <mxCell id="VnqO1U13nYdputCluO3b-77" value="CAMPO DE DESVINCULAÇÃO DE BLOCO... quando o vendedor devolver os blocos ou números que ele não conseguiu vender... o sistema deve inutulizar essa numeração" style="rounded=0;whiteSpace=wrap;html=1;" vertex="1" parent="WIyWlLk6GJQsqaUBKTNV-1">
          <mxGeometry x="220" y="650" width="300" height="65" as="geometry" />
        </mxCell>
        <mxCell id="VnqO1U13nYdputCluO3b-83" style="edgeStyle=none;curved=1;rounded=0;orthogonalLoop=1;jettySize=auto;html=1;entryX=0;entryY=0.5;entryDx=0;entryDy=0;fontSize=12;startSize=8;endSize=8;" edge="1" parent="WIyWlLk6GJQsqaUBKTNV-1" source="VnqO1U13nYdputCluO3b-80" target="VnqO1U13nYdputCluO3b-81">
          <mxGeometry relative="1" as="geometry" />
        </mxCell>
        <mxCell id="VnqO1U13nYdputCluO3b-80" value="RELATÓRIOS" style="rounded=1;whiteSpace=wrap;html=1;fontSize=12;glass=0;strokeWidth=1;shadow=0;" vertex="1" parent="WIyWlLk6GJQsqaUBKTNV-1">
          <mxGeometry x="10" y="730" width="120" height="50" as="geometry" />
        </mxCell>
        <mxCell id="VnqO1U13nYdputCluO3b-81" value="Relatório de vendas já feitas, no caso blocos já devolvidos.&amp;nbsp;" style="rounded=0;whiteSpace=wrap;html=1;" vertex="1" parent="WIyWlLk6GJQsqaUBKTNV-1">
          <mxGeometry x="220" y="740" width="300" height="40" as="geometry" />
        </mxCell>
      </root>
    </mxGraphModel>
  </diagram>
</mxfile>
